<?xml version="1.0" standalone="no"?>
<!DOCTYPE svg PUBLIC "-//W3C//DTD SVG 20010904//EN"
 "http://www.w3.org/TR/2001/REC-SVG-20010904/DTD/svg10.dtd">
<svg version="1.0" xmlns="http://www.w3.org/2000/svg"
 width="320.000000pt" height="320.000000pt" viewBox="0 0 320.000000 320.000000"
 preserveAspectRatio="xMidYMid meet">

<g transform="translate(0.000000,320.000000) scale(0.100000,-0.100000)"
fill="#000000" stroke="none">
<path d="M1450 3194 c-728 -86 -1281 -591 -1422 -1299 -32 -157 -32 -433 0
-590 132 -662 638 -1161 1298 -1281 137 -25 411 -25 548 0 667 121 1181 635
1302 1302 25 137 25 411 0 548 -120 658 -622 1169 -1276 1297 -101 20 -364 33
-450 23z m-493 -605 c15 -5 152 -133 303 -284 292 -291 303 -299 377 -280 18
4 126 104 304 281 292 292 313 307 375 284 16 -6 82 -64 147 -128 127 -126
148 -162 127 -219 -6 -15 -134 -152 -285 -303 -178 -179 -276 -285 -280 -303
-19 -74 -11 -85 281 -378 292 -292 307 -313 284 -375 -6 -16 -64 -82 -128
-147 -126 -127 -162 -148 -219 -127 -15 6 -152 134 -303 285 -292 290 -303
299 -377 280 -18 -4 -124 -102 -303 -281 -293 -292 -314 -307 -376 -284 -16 6
-82 64 -147 128 -127 126 -148 162 -127 219 6 15 134 152 285 303 176 177 276
285 280 303 19 74 11 85 -281 378 -290 291 -305 311 -284 374 13 40 237 263
275 274 40 12 40 12 72 0z"/>
</g>
</svg>
