<svg width="32" height="32" viewBox="0 0 32 32" fill="none" xmlns="http://www.w3.org/2000/svg">
<rect x="0.5" y="0.5" width="31" height="31" stroke="white"/>
<g clip-path="url(#clip0_3203_1044)">
<path d="M24.7794 10.7049C24.1124 10.9894 23.405 11.1761 22.6806 11.2589C23.4352 10.8235 24.0145 10.134 24.2873 9.31247C23.57 9.72228 22.7853 10.011 21.967 10.1662C21.3004 9.48248 20.3508 9.05518 19.2998 9.05518C17.2818 9.05518 15.6456 10.6304 15.6456 12.5733C15.6456 12.849 15.678 13.1175 15.7402 13.3751C12.7034 13.2283 10.011 11.8277 8.20869 9.69918C7.89422 10.2188 7.71403 10.8232 7.71403 11.4679C7.71403 12.6885 8.35918 13.7653 9.33959 14.3962C8.75932 14.3787 8.19182 14.2278 7.68446 13.9561C7.68425 13.9708 7.68425 13.9856 7.68425 14.0004C7.68425 15.705 8.94379 17.1269 10.6153 17.4501C10.0773 17.591 9.51285 17.6117 8.96522 17.5104C9.43017 18.9082 10.7797 19.9253 12.3786 19.9537C11.128 20.8973 9.55241 21.4598 7.84051 21.4598C7.54553 21.4598 7.25471 21.4431 6.96884 21.4106C8.58591 22.4088 10.5066 22.9913 12.5701 22.9913C19.2913 22.9913 22.9666 17.6303 22.9666 12.9813C22.9666 12.8287 22.9631 12.677 22.956 12.5261C23.6714 12.0282 24.2888 11.4115 24.7794 10.7049Z" fill="white"/>
</g>
<defs>
<clipPath id="clip0_3203_1044">
<rect width="18" height="14" fill="white" transform="translate(7.00009 9)"/>
</clipPath>
</defs>
</svg>
